{
  "accessors": [
    {
      "bufferView": 3,
      "componentType": 5126,
      "count": 272,
      "max": [
        0.08468069136142731,
        1.1759190559387207,
        -0.12999017536640167
      ],
      "min": [
        -0.08468069136142731,
        1.0064319372177124,
        -0.15938961505889893
      ],
      "type": "VEC3"
    },
    {
      "bufferView": 3,
      "byteOffset": 3264,
      "componentType": 5126,
      "count": 272,
      "max": [
        1.0,
        0.9981145262718201,
        0.9824544191360474
      ],
      "min": [
        -1.0,
        -0.9999809861183167,
        -0.9823968410491943
      ],
      "type": "VEC3"
    },
    {
      "bufferView": 4,
      "componentType": 5126,
      "count": 272,
      "max": [
        0.9693652987480164,
        0.9824543595314026,
        0.9999809265136719,
        1.0
      ],
      "min": [
        -0.9693652987480164,
        -0.9521978497505188,
        -0.9999194145202637,
        -1.0
      ],
      "type": "VEC4"
    },
    {
      "bufferView": 2,
      "componentType": 5126,
      "count": 272,
      "max": [
        0.9311519861221313,
        -0.02233898639678955
      ],
      "min": [
        0.11077900230884552,
        -0.9780269861221313
      ],
      "type": "VEC2"
    },
    {
      "bufferView": 1,
      "componentType": 5125,
      "count": 816,
      "type": "SCALAR"
    },
    {
      "bufferView": 3,
      "byteOffset": 6528,
      "componentType": 5126,
      "count": 2243,
      "max": [
        0.5611434578895569,
        1.2260135412216187,
        0.08893196284770966
      ],
      "min": [
        -0.5611432790756226,
        0.0031991449650377035,
        -0.16733793914318085
      ],
      "type": "VEC3"
    },
    {
      "bufferView": 3,
      "byteOffset": 33444,
      "componentType": 5126,
      "count": 2243,
      "max": [
        0.9969103336334229,
        0.9990329146385193,
        0.9999850988388062
      ],
      "min": [
        -0.9969082474708557,
        -0.9966393709182739,
        -0.9994896650314331
      ],
      "type": "VEC3"
    },
    {
      "bufferView": 4,
      "byteOffset": 4352,
      "componentType": 5126,
      "count": 2243,
      "max": [
        1.0,
        0.9988332390785217,
        0.9999606609344482,
        1.0
      ],
      "min": [
        -0.9995183944702148,
        -0.9993652701377869,
        -0.9990296959877014,
        -1.0
      ],
      "type": "VEC4"
    },
    {
      "bufferView": 2,
      "byteOffset": 2176,
      "componentType": 5126,
      "count": 2243,
      "max": [
        0.9931640028953552,
        -0.0027409791946411133
      ],
      "min": [
        0.00788899976760149,
        -0.9970700740814209
      ],
      "type": "VEC2"
    },
    {
      "bufferView": 1,
      "byteOffset": 3264,
      "componentType": 5125,
      "count": 10398,
      "type": "SCALAR"
    },
    {
      "bufferView": 3,
      "byteOffset": 60360,
      "componentType": 5126,
      "count": 876,
      "max": [
        0.09098175913095474,
        1.4121620655059814,
        0.09517085552215576
      ],
      "min": [
        -0.09098175913095474,
        1.1902979612350464,
        -0.1455574482679367
      ],
      "type": "VEC3"
    },
    {
      "bufferView": 3,
      "byteOffset": 70872,
      "componentType": 5126,
      "count": 876,
      "max": [
        0.9998241066932678,
        0.9996781945228577,
        0.9963876008987427
      ],
      "min": [
        -0.9998369216918945,
        -0.9979948401451111,
        -0.9984990954399109
      ],
      "type": "VEC3"
    },
    {
      "bufferView": 4,
      "byteOffset": 40240,
      "componentType": 5126,
      "count": 876,
      "max": [
        0.9999995231628418,
        0.997452974319458,
        0.9941399097442627,
        1.0
      ],
      "min": [
        -0.9998105764389038,
        -0.9992192387580872,
        -0.9935281276702881,
        -1.0
      ],
      "type": "VEC4"
    },
    {
      "bufferView": 2,
      "byteOffset": 20120,
      "componentType": 5126,
      "count": 876,
      "max": [
        0.9863280057907104,
        -0.014739990234375
      ],
      "min": [
        0.020263999700546265,
        -0.9863280057907104
      ],
      "type": "VEC2"
    },
    {
      "bufferView": 1,
      "byteOffset": 44856,
      "componentType": 5125,
      "count": 3990,
      "type": "SCALAR"
    },
    {
      "bufferView": 3,
      "byteOffset": 81384,
      "componentType": 5126,
      "count": 99,
      "max": [
        0.063291534781456,
        1.2787576913833618,
        0.03430015966296196
      ],
      "min": [
        -0.063291534781456,
        1.1498944759368896,
        -0.11158400774002075
      ],
      "type": "VEC3"
    },
    {
      "bufferView": 3,
      "byteOffset": 82572,
      "componentType": 5126,
      "count": 99,
      "max": [
        0.9988245368003845,
        0.31306424736976624,
        0.9449902176856995
      ],
      "min": [
        -0.9988245368003845,
        -0.8465603590011597,
        -0.9997162818908691
      ],
      "type": "VEC3"
    },
    {
      "bufferView": 4,
      "byteOffset": 54256,
      "componentType": 5126,
      "count": 99,
      "max": [
        0.7233490943908691,
        0.9997162818908691,
        0.8465603590011597,
        1.0
      ],
      "min": [
        -0.7233491539955139,
        0.5322927236557007,
        -0.17700670659542084,
        -1.0
      ],
      "type": "VEC4"
    },
    {
      "bufferView": 2,
      "byteOffset": 27128,
      "componentType": 5126,
      "count": 99,
      "max": [
        0.45849600434303284,
        -0.3623049259185791
      ],
      "min": [
        0.37133800983428955,
        -0.5249019861221313
      ],
      "type": "VEC2"
    },
    {
      "bufferView": 1,
      "byteOffset": 60816,
      "componentType": 5125,
      "count": 474,
      "type": "SCALAR"
    },
    {
      "bufferView": 3,
      "byteOffset": 83760,
      "componentType": 5126,
      "count": 1040,
      "max": [
        0.06963144987821579,
        1.393329381942749,
        0.03735993057489395
      ],
      "min": [
        -0.06683143973350525,
        1.223720669746399,
        -0.11187490075826645
      ],
      "type": "VEC3"
    },
    {
      "bufferView": 3,
      "byteOffset": 96240,
      "componentType": 5126,
      "count": 1040,
      "max": [
        0.9964220523834229,
        0.9971774220466614,
        0.997313916683197
      ],
      "min": [
        -0.9990379214286804,
        -0.8431799411773682,
        -0.9997520446777344
      ],
      "type": "VEC3"
    },
    {
      "bufferView": 4,
      "byteOffset": 55840,
      "componentType": 5126,
      "count": 1040,
      "max": [
        0.8333216309547424,
        0.9997338652610779,
        0.9981103539466858,
        1.0
      ],
      "min": [
        -0.9999874830245972,
        -0.9999048113822937,
        -0.9930291771888733,
        -1.0
      ],
      "type": "VEC4"
    },
    {
      "bufferView": 2,
      "byteOffset": 27920,
      "componentType": 5126,
      "count": 1040,
      "max": [
        1.0009770393371582,
        -0.0018030405044555664
      ],
      "min": [
        0.0007120000082068145,
        -0.9985349178314209
      ],
      "type": "VEC2"
    },
    {
      "bufferView": 1,
      "byteOffset": 62712,
      "componentType": 5125,
      "count": 3366,
      "type": "SCALAR"
    },
    {
      "bufferView": 3,
      "byteOffset": 108720,
      "componentType": 5126,
      "count": 1040,
      "max": [
        0.06963144987821579,
        1.393329381942749,
        0.03735993057489395
      ],
      "min": [
        -0.06683143973350525,
        1.223720669746399,
        -0.11187490075826645
      ],
      "type": "VEC3"
    },
    {
      "bufferView": 3,
      "byteOffset": 121200,
      "componentType": 5126,
      "count": 1040,
      "max": [
        0.9964220523834229,
        0.9971774220466614,
        0.997313916683197
      ],
      "min": [
        -0.9990379214286804,
        -0.8431467413902283,
        -0.9997520446777344
      ],
      "type": "VEC3"
    },
    {
      "bufferView": 2,
      "byteOffset": 36240,
      "componentType": 5126,
      "count": 1040,
      "max": [
        1.0009770393371582,
        -0.0018030405044555664
      ],
      "min": [
        0.0007120000082068145,
        -0.9985349178314209
      ],
      "type": "VEC2"
    },
    {
      "bufferView": 1,
      "byteOffset": 76176,
      "componentType": 5125,
      "count": 3366,
      "type": "SCALAR"
    },
    {
      "bufferView": 3,
      "byteOffset": 133680,
      "componentType": 5126,
      "count": 146,
      "max": [
        0.03433011472225189,
        1.3130724430084229,
        0.03562542796134949
      ],
      "min": [
        -0.03320366516709328,
        1.289746880531311,
        0.02310844697058201
      ],
      "type": "VEC3"
    },
    {
      "bufferView": 3,
      "byteOffset": 135432,
      "componentType": 5126,
      "count": 146,
      "max": [
        0.9753870368003845,
        0.9565252065658569,
        0.9974684715270996
      ],
      "min": [
        -0.9753888249397278,
        -0.9871114492416382,
        0.1459086686372757
      ],
      "type": "VEC3"
    },
    {
      "bufferView": 2,
      "byteOffset": 44560,
      "componentType": 5126,
      "count": 146,
      "max": [
        1.0,
        1.0
      ],
      "min": [
        0.0,
        0.0
      ],
      "type": "VEC2"
    },
    {
      "bufferView": 1,
      "byteOffset": 89640,
      "componentType": 5125,
      "count": 792,
      "type": "SCALAR"
    },
    {
      "bufferView": 3,
      "byteOffset": 137184,
      "componentType": 5126,
      "count": 1108,
      "max": [
        0.06654482334852219,
        1.3662879467010498,
        0.06357651948928833
      ],
      "min": [
        -0.0660000666975975,
        1.1189335584640503,
        -0.10452248156070709
      ],
      "type": "VEC3"
    },
    {
      "bufferView": 3,
      "byteOffset": 150480,
      "componentType": 5126,
      "count": 1108,
      "max": [
        0.9983841180801392,
        0.9997758865356445,
        0.9998173713684082
      ],
      "min": [
        -0.9981800317764282,
        -0.995025634765625,
        -0.9980134963989258
      ],
      "type": "VEC3"
    },
    {
      "bufferView": 4,
      "byteOffset": 72480,
      "componentType": 5126,
      "count": 1108,
      "max": [
        0.9999997019767761,
        0.9951868653297424,
        0.9990761280059814,
        1.0
      ],
      "min": [
        -0.9874725341796875,
        -0.9992992281913757,
        -0.9999828934669495,
        -1.0
      ],
      "type": "VEC4"
    },
    {
      "bufferView": 2,
      "byteOffset": 45728,
      "componentType": 5126,
      "count": 1108,
      "max": [
        0.9951170086860657,
        -0.006023049354553223
      ],
      "min": [
        0.006004000082612038,
        -0.9941409826278687
      ],
      "type": "VEC2"
    },
    {
      "bufferView": 1,
      "byteOffset": 92808,
      "componentType": 5125,
      "count": 5556,
      "type": "SCALAR"
    },
    {
      "bufferView": 5,
      "componentType": 5126,
      "count": 97,
      "max": [
        99.99998474121094,
        0.9999999403953552,
        0.8353111743927002,
        0.0,
        1.0,
        100.0,
        0.9999778270721436,
        0.0,
        1.0000001192092896,
        0.9985458850860596,
        100.0,
        0.0,
        0.6895109415054321,
        0.9343123435974121,
        1.3099673986434937,
        1.0
      ],
      "min": [
        -0.9442122578620911,
        -1.0,
        -0.8353032469749451,
        0.0,
        -0.9838659763336182,
        -0.7577520608901978,
        -1.0000001192092896,
        0.0,
        -0.20306044816970825,
        -0.9985467195510864,
        -0.3348569869995117,
        0.0,
        -1.2375342845916748,
        -0.9343302845954895,
        -1.0966461896896362,
        1.0
      ],
      "type": "MAT4"
    },
    {
      "bufferView": 0,
      "componentType": 5123,
      "count": 272,
      "type": "VEC4"
    },
    {
      "bufferView": 4,
      "byteOffset": 90208,
      "componentType": 5126,
      "count": 272,
      "max": [
        1.0,
        0.0,
        0.0,
        0.0
      ],
      "min": [
        1.0,
        0.0,
        0.0,
        0.0
      ],
      "type": "VEC4"
    },
    {
      "bufferView": 0,
      "byteOffset": 2176,
      "componentType": 5123,
      "count": 2243,
      "type": "VEC4"
    },
    {
      "bufferView": 4,
      "byteOffset": 94560,
      "componentType": 5126,
      "count": 2243,
      "max": [
        1.0,
        0.49603182077407837,
        0.2705880105495453,
        0.0
      ],
      "min": [
        0.37647101283073425,
        0.0,
        0.0,
        0.0
      ],
      "type": "VEC4"
    },
    {
      "bufferView": 0,
      "byteOffset": 20120,
      "componentType": 5123,
      "count": 876,
      "type": "VEC4"
    },
    {
      "bufferView": 4,
      "byteOffset": 130448,
      "componentType": 5126,
      "count": 876,
      "max": [
        1.0,
        0.0,
        0.0,
        0.0
      ],
      "min": [
        1.0,
        0.0,
        0.0,
        0.0
      ],
      "type": "VEC4"
    },
    {
      "bufferView": 0,
      "byteOffset": 27128,
      "componentType": 5123,
      "count": 99,
      "type": "VEC4"
    },
    {
      "bufferView": 4,
      "byteOffset": 144464,
      "componentType": 5126,
      "count": 99,
      "max": [
        1.0,
        0.495967835187912,
        0.19215700030326843,
        0.0
      ],
      "min": [
        0.5040321946144104,
        0.0,
        0.0,
        0.0
      ],
      "type": "VEC4"
    },
    {
      "bufferView": 0,
      "byteOffset": 27920,
      "componentType": 5123,
      "count": 1040,
      "type": "VEC4"
    },
    {
      "bufferView": 4,
      "byteOffset": 146048,
      "componentType": 5126,
      "count": 1040,
      "max": [
        1.0,
        0.4352940022945404,
        0.0,
        0.0
      ],
      "min": [
        0.564706027507782,
        0.0,
        0.0,
        0.0
      ],
      "type": "VEC4"
    },
    {
      "bufferView": 0,
      "byteOffset": 36240,
      "componentType": 5123,
      "count": 1040,
      "type": "VEC4"
    },
    {
      "bufferView": 4,
      "byteOffset": 162688,
      "componentType": 5126,
      "count": 1040,
      "max": [
        1.0,
        0.4352940022945404,
        0.0,
        0.0
      ],
      "min": [
        0.564706027507782,
        0.0,
        0.0,
        0.0
      ],
      "type": "VEC4"
    },
    {
      "bufferView": 0,
      "byteOffset": 44560,
      "componentType": 5123,
      "count": 146,
      "type": "VEC4"
    },
    {
      "bufferView": 4,
      "byteOffset": 179328,
      "componentType": 5126,
      "count": 146,
      "max": [
        1.0,
        0.0,
        0.0,
        0.0
      ],
      "min": [
        1.0,
        0.0,
        0.0,
        0.0
      ],
      "type": "VEC4"
    },
    {
      "bufferView": 0,
      "byteOffset": 45728,
      "componentType": 5123,
      "count": 1108,
      "type": "VEC4"
    },
    {
      "bufferView": 4,
      "byteOffset": 181664,
      "componentType": 5126,
      "count": 1108,
      "max": [
        1.0,
        0.49411800503730774,
        0.21481500566005707,
        0.0
      ],
      "min": [
        0.42422956228256226,
        0.0,
        0.0,
        0.0
      ],
      "type": "VEC4"
    }
  ],
  "asset": {
    "extras": {
      "author": "SpringSociety (https://sketchfab.com/jcreadingtutor)",
      "license": "CC-BY-4.0 (http://creativecommons.org/licenses/by/4.0/)",
      "source": "https://sketchfab.com/3d-models/clu-rigged-4bd4219cb57a4a7d8fb5c1f7b6059370",
      "title": "Clu Rigged"
    },
    "generator": "Sketchfab-16.35.0",
    "version": "2.0"
  },
  "bufferViews": [
    {
      "buffer": 0,
      "byteLength": 54592,
      "byteStride": 8,
      "name": "shortBufferViews",
      "target": 34962
    },
    {
      "buffer": 0,
      "byteLength": 115032,
      "byteOffset": 54592,
      "name": "floatBufferViews",
      "target": 34963
    },
    {
      "buffer": 0,
      "byteLength": 54592,
      "byteOffset": 169624,
      "byteStride": 8,
      "name": "floatBufferViews",
      "target": 34962
    },
    {
      "buffer": 0,
      "byteLength": 163776,
      "byteOffset": 224216,
      "byteStride": 12,
      "name": "floatBufferViews",
      "target": 34962
    },
    {
      "buffer": 0,
      "byteLength": 199392,
      "byteOffset": 387992,
      "byteStride": 16,
      "name": "floatBufferViews",
      "target": 34962
    },
    {
      "buffer": 0,
      "byteLength": 6208,
      "byteOffset": 587384,
      "name": "floatBufferViews"
    }
  ],
  "buffers": [
    {
      "byteLength": 593592,
      "uri": "scene.bin"
    }
  ],
  "extensionsUsed": [
    "KHR_materials_specular"
  ],
  "images": [
    {
      "uri": "textures/CLU_Disc_baseColor.png"
    },
    {
      "uri": "textures/CLU_Disc_emissive.png"
    },
    {
      "uri": "textures/CLU_Disc_normal.png"
    },
    {
      "uri": "textures/CLU_Disc_specularf0.png"
    },
    {
      "uri": "textures/CLU_Body_baseColor.png"
    },
    {
      "uri": "textures/CLU_Body_metallicRoughness.png"
    },
    {
      "uri": "textures/CLU_Body_emissive.png"
    },
    {
      "uri": "textures/CLU_Body_normal.png"
    },
    {
      "uri": "textures/CLU_Helmet_baseColor.png"
    },
    {
      "uri": "textures/CLU_Helmet_metallicRoughness.png"
    },
    {
      "uri": "textures/CLU_Helmet_emissive.png"
    },
    {
      "uri": "textures/CLU_Helmet_normal.png"
    },
    {
      "uri": "textures/CLU_Hair_D_baseColor.png"
    },
    {
      "uri": "textures/CLU_Hair_D_normal.png"
    },
    {
      "uri": "textures/CLU_Eyes_baseColor.png"
    },
    {
      "uri": "textures/CLU_Head_baseColor.png"
    },
    {
      "uri": "textures/CLU_Head_normal.png"
    }
  ],
  "materials": [
    {
      "doubleSided": true,
      "emissiveFactor": [
        1.0,
        1.0,
        1.0
      ],
      "emissiveTexture": {
        "index": 1
      },
      "extensions": {
        "KHR_materials_specular": {
          "specularColorFactor": [
            1.0,
            1.0,
            1.0
          ],
          "specularFactor": 1.0,
          "specularTexture": {
            "index": 3
          }
        }
      },
      "name": "CLU_Disc",
      "normalTexture": {
        "index": 2
      },
      "pbrMetallicRoughness": {
        "baseColorTexture": {
          "index": 0
        },
        "metallicFactor": 0.0,
        "roughnessFactor": 0.8496991103862774
      }
    },
    {
      "doubleSided": true,
      "emissiveFactor": [
        1.0,
        1.0,
        1.0
      ],
      "emissiveTexture": {
        "index": 6
      },
      "extensions": {
        "KHR_materials_specular": {
          "specularColorFactor": [
            1.0,
            1.0,
            1.0
          ],
          "specularFactor": 0.0
        }
      },
      "name": "CLU_Body",
      "normalTexture": {
        "index": 7
      },
      "pbrMetallicRoughness": {
        "baseColorTexture": {
          "index": 4
        },
        "metallicRoughnessTexture": {
          "index": 5
        }
      }
    },
    {
      "doubleSided": true,
      "emissiveFactor": [
        1.0,
        1.0,
        1.0
      ],
      "emissiveTexture": {
        "index": 10
      },
      "extensions": {
        "KHR_materials_specular": {
          "specularColorFactor": [
            1.0,
            1.0,
            1.0
          ],
          "specularFactor": 0.0
        }
      },
      "name": "CLU_Helmet",
      "normalTexture": {
        "index": 11
      },
      "pbrMetallicRoughness": {
        "baseColorTexture": {
          "index": 8
        },
        "metallicRoughnessTexture": {
          "index": 9
        },
        "roughnessFactor": 0.0
      }
    },
    {
      "doubleSided": true,
      "name": "CLU_Hair_D",
      "normalTexture": {
        "index": 13
      },
      "pbrMetallicRoughness": {
        "baseColorTexture": {
          "index": 12
        },
        "metallicFactor": 0.0,
        "roughnessFactor": 0.8250015512402399
      }
    },
    {
      "doubleSided": true,
      "name": "CLU_Hair",
      "pbrMetallicRoughness": {
        "baseColorFactor": [
          0.502204,
          0.859579,
          0.511669,
          1.0
        ],
        "metallicFactor": 0.0,
        "roughnessFactor": 0.8142106187050553
      }
    },
    {
      "doubleSided": true,
      "name": "CLU_Eyes",
      "pbrMetallicRoughness": {
        "baseColorTexture": {
          "index": 14
        },
        "metallicFactor": 0.0,
        "roughnessFactor": 0.8563036259298366
      }
    },
    {
      "doubleSided": true,
      "name": "CLU_Head",
      "normalTexture": {
        "index": 16
      },
      "pbrMetallicRoughness": {
        "baseColorTexture": {
          "index": 15
        },
        "metallicFactor": 0.0,
        "roughnessFactor": 0.8533931946365421
      }
    }
  ],
  "meshes": [
    {
      "name": "CLU_Body.smd_CLU_Disc_0",
      "primitives": [
        {
          "attributes": {
            "JOINTS_0": 39,
            "NORMAL": 1,
            "POSITION": 0,
            "TANGENT": 2,
            "TEXCOORD_0": 3,
            "WEIGHTS_0": 40
          },
          "indices": 4,
          "material": 0,
          "mode": 4
        }
      ]
    },
    {
      "name": "CLU_Body.smd_CLU_Body_0",
      "primitives": [
        {
          "attributes": {
            "JOINTS_0": 41,
            "NORMAL": 6,
            "POSITION": 5,
            "TANGENT": 7,
            "TEXCOORD_0": 8,
            "WEIGHTS_0": 42
          },
          "indices": 9,
          "material": 1,
          "mode": 4
        }
      ]
    },
    {
      "name": "CLU_Helmet.smd_CLU_Helmet_0",
      "primitives": [
        {
          "attributes": {
            "JOINTS_0": 43,
            "NORMAL": 11,
            "POSITION": 10,
            "TANGENT": 12,
            "TEXCOORD_0": 13,
            "WEIGHTS_0": 44
          },
          "indices": 14,
          "material": 2,
          "mode": 4
        }
      ]
    },
    {
      "name": "CLU_Helmet.smd_CLU_Body_0",
      "primitives": [
        {
          "attributes": {
            "JOINTS_0": 45,
            "NORMAL": 16,
            "POSITION": 15,
            "TANGENT": 17,
            "TEXCOORD_0": 18,
            "WEIGHTS_0": 46
          },
          "indices": 19,
          "material": 1,
          "mode": 4
        }
      ]
    },
    {
      "name": "CLU_Head.smd_CLU_Hair_D_0",
      "primitives": [
        {
          "attributes": {
            "JOINTS_0": 47,
            "NORMAL": 21,
            "POSITION": 20,
            "TANGENT": 22,
            "TEXCOORD_0": 23,
            "WEIGHTS_0": 48
          },
          "indices": 24,
          "material": 3,
          "mode": 4
        }
      ]
    },
    {
      "name": "CLU_Head.smd_CLU_Hair_0",
      "primitives": [
        {
          "attributes": {
            "JOINTS_0": 49,
            "NORMAL": 26,
            "POSITION": 25,
            "TEXCOORD_0": 27,
            "WEIGHTS_0": 50
          },
          "indices": 28,
          "material": 4,
          "mode": 4
        }
      ]
    },
    {
      "name": "CLU_Head.smd_CLU_Eyes_0",
      "primitives": [
        {
          "attributes": {
            "JOINTS_0": 51,
            "NORMAL": 30,
            "POSITION": 29,
            "TEXCOORD_0": 31,
            "WEIGHTS_0": 52
          },
          "indices": 32,
          "material": 5,
          "mode": 4
        }
      ]
    },
    {
      "name": "CLU_Head.smd_CLU_Head_0",
      "primitives": [
        {
          "attributes": {
            "JOINTS_0": 53,
            "NORMAL": 34,
            "POSITION": 33,
            "TANGENT": 35,
            "TEXCOORD_0": 36,
            "WEIGHTS_0": 54
          },
          "indices": 37,
          "material": 6,
          "mode": 4
        }
      ]
    }
  ],
  "nodes": [
    {
      "children": [
        1
      ],
      "matrix": [
        1.0,
        0.0,
        0.0,
        0.0,
        0.0,
        2.220446049250313e-16,
        -1.0,
        0.0,
        0.0,
        1.0,
        2.220446049250313e-16,
        0.0,
        0.0,
        0.0,
        0.0,
        1.0
      ],
      "name": "Sketchfab_model"
    },
    {
      "children": [
        2
      ],
      "matrix": [
        0.009999999776482582,
        0.0,
        0.0,
        0.0,
        0.0,
        0.0,
        0.009999999776482582,
        0.0,
        0.0,
        -0.009999999776482582,
        0.0,
        0.0,
        0.0,
        0.0,
        0.0,
        1.0
      ],
      "name": "8f05d90ef80c4582a500999f019446ab.fbx"
    },
    {
      "children": [
        3
      ],
      "name": "RootNode"
    },
    {
      "children": [
        4
      ],
      "matrix": [
        100.0,
        0.0,
        0.0,
        0.0,
        0.0,
        -1.629206793918314e-05,
        -99.99999999999868,
        0.0,
        0.0,
        99.99999999999868,
        -1.629206793918314e-05,
        0.0,
        0.0,
        0.0,
        0.0,
        1.0
      ],
      "name": "CLU_ARM"
    },
    {
      "children": [
        5,
        7,
        8,
        10,
        11,
        13,
        14,
        15,
        16,
        6,
        9,
        12
      ],
      "name": "Object_4"
    },
    {
      "children": [
        17
      ],
      "name": "_rootJoint"
    },
    {
      "matrix": [
        99.99998808307843,
        -8.774396140220908e-13,
        -3.149760248628841e-11,
        0.0,
        -3.1497607435420484e-11,
        -4.2238564743734116e-07,
        -100.00000378403634,
        0.0,
        8.774396187120012e-13,
        100.00000378002895,
        -4.223856474204145e-07,
        0.0,
        -9.138252220902698e-13,
        1.7838332979636107e-06,
        6.163117038937571e-08,
        1.0
      ],
      "name": "Object_6"
    },
    {
      "mesh": 0,
      "name": "Object_7",
      "skin": 0
    },
    {
      "mesh": 1,
      "name": "Object_8",
      "skin": 0
    },
    {
      "matrix": [
        99.99998808307843,
        -8.774396140220908e-13,
        -3.149760248628841e-11,
        0.0,
        -3.1497607435420484e-11,
        -4.2238564743734116e-07,
        -100.00000378403634,
        0.0,
        8.774396187120012e-13,
        100.00000378002895,
        -4.223856474204145e-07,
        0.0,
        -9.138252220902698e-13,
        1.7838332979636107e-06,
        6.163117038937571e-08,
        1.0
      ],
      "name": "Object_9"
    },
    {
      "mesh": 2,
      "name": "Object_10",
      "skin": 0
    },
    {
      "mesh": 3,
      "name": "Object_11",
      "skin": 0
    },
    {
      "matrix": [
        99.99998808307843,
        -8.774396140220908e-13,
        -3.149760248628841e-11,
        0.0,
        -3.1497607435420484e-11,
        -4.2238564743734116e-07,
        -100.00000378403634,
        0.0,
        8.774396187120012e-13,
        100.00000378002895,
        -4.223856474204145e-07,
        0.0,
        -9.138252220902698e-13,
        1.7838332979636107e-06,
        6.163117038937571e-08,
        1.0
      ],
      "name": "Object_12"
    },
    {
      "mesh": 4,
      "name": "Object_13",
      "skin": 0
    },
    {
      "mesh": 5,
      "name": "Object_14",
      "skin": 0
    },
    {
      "mesh": 6,
      "name": "Object_15",
      "skin": 0
    },
    {
      "mesh": 7,
      "name": "Object_16",
      "skin": 0
    },
    {
      "children": [
        18,
        99,
        106
      ],
      "name": "bip_pelvis_01",
      "rotation": [
        0.482065886259079,
        -0.4820689857006073,
        0.5173096656799316,
        0.5173129439353943
      ],
      "translation": [
        0.0,
        0.004390708636492491,
        0.766315758228302
      ]
    },
    {
      "children": [
        19
      ],
      "name": "bip_spine_0_02",
      "rotation": [
        1.2221680556478987e-08,
        0.009802301414310932,
        1.1979624237046238e-10,
        0.999951958656311
      ],
      "translation": [
        0.07187024503946304,
        -1.3038524926400896e-08,
        2.048881775351674e-08
      ]
    },
    {
      "children": [
        20
      ],
      "name": "bip_spine_1_03",
      "rotation": [
        -2.444402369405907e-08,
        -7.30752944946289e-05,
        1.80999670546661e-12,
        1.0
      ],
      "translation": [
        0.0908694788813591,
        -1.862701548560608e-09,
        -1.0244608716902803e-07
      ]
    },
    {
      "children": [
        21,
        49,
        77,
        97
      ],
      "name": "bip_spine_2_04",
      "rotation": [
        -6.54133661842117e-14,
        0.003477036487311125,
        -4.8295002267890585e-15,
        0.9999939799308777
      ],
      "scale": [
        0.9999999403953552,
        1.0,
        0.9999999403953552
      ],
      "translation": [
        0.10228043794631958,
        -2.6077048076444953e-08,
        -7.823223313607741e-08
      ]
    },
    {
      "children": [
        22
      ],
      "name": "bip_collar_R_05",
      "rotation": [
        0.3718692362308502,
        0.5698171257972717,
        0.5785874724388123,
        0.4497312903404236
      ],
      "scale": [
        1.0,
        1.0000001192092896,
        1.0000001192092896
      ],
      "translation": [
        0.12348516285419464,
        0.02252432331442833,
        -0.02537790685892105
      ]
    },
    {
      "children": [
        23,
        47
      ],
      "name": "bip_upperarm_R_06",
      "rotation": [
        -0.7054110169410706,
        0.13477562367916107,
        0.1314881294965744,
        0.683331310749054
      ],
      "scale": [
        0.9999998807907104,
        1.0,
        0.9999999403953552
      ],
      "translation": [
        0.12771616876125336,
        2.9561284975443414e-08,
        -5.7247234508395195e-06
      ]
    },
    {
      "children": [
        24,
        45
      ],
      "name": "bip_lowerarm_R_07",
      "rotation": [
        4.529457874014042e-05,
        -0.17846815288066864,
        0.00039644347270950675,
        0.9839456081390381
      ],
      "scale": [
        0.9999999403953552,
        0.9999998807907104,
        0.9999999403953552
      ],
      "translation": [
        0.20349907875061035,
        2.7575879357755184e-06,
        -2.4549663066864014e-06
      ]
    },
    {
      "children": [
        25,
        29,
        33,
        37,
        41
      ],
      "name": "bip_hand_R_08",
      "rotation": [
        0.0020424635149538517,
        0.10810612887144089,
        0.05883798748254776,
        0.9923946857452393
      ],
      "scale": [
        1.0000001192092896,
        1.0,
        1.0000001192092896
      ],
      "translation": [
        0.2073294073343277,
        2.3068641894496977e-06,
        -1.8943101167678833e-06
      ]
    },
    {
      "children": [
        26
      ],
      "name": "bip_index_0_R_09",
      "rotation": [
        -0.055079348385334015,
        -0.034260381013154984,
        0.10418770462274551,
        0.9924402236938477
      ],
      "scale": [
        0.9999998807907104,
        1.0000001192092896,
        1.0
      ],
      "translation": [
        0.0896482765674591,
        -0.006165588274598122,
        0.0413760244846344
      ]
    },
    {
      "children": [
        27
      ],
      "name": "bip_index_1_R_010",
      "rotation": [
        -3.899074727087282e-06,
        2.0722422959806863e-06,
        -0.006905996240675449,
        0.9999761581420898
      ],
      "scale": [
        1.0,
        0.9999998807907104,
        1.0000001192092896
      ],
      "translation": [
        0.026851151138544083,
        -2.2165477275848389e-07,
        -4.76837158203125e-07
      ]
    },
    {
      "children": [
        28
      ],
      "name": "bip_index_2_R_011",
      "rotation": [
        -5.82423751893657e-07,
        -4.1988696466432884e-06,
        0.07733171433210373,
        0.9970055222511292
      ],
      "scale": [
        0.9999999403953552,
        0.9999998807907104,
        0.9999998807907104
      ],
      "translation": [
        0.018257079645991325,
        -1.0849907994270325e-07,
        -1.4528632164001465e-07
      ]
    },
    {
      "name": "bip_index_2_R_end_068",
      "rotation": [
        1.3877787807814457e-17,
        1.3877787807814457e-17,
        -4.336808689942018e-17,
        1.0
      ],
      "translation": [
        -5.551115123125783e-17,
        0.01904999651014805,
        0.0
      ]
    },
    {
      "children": [
        30
      ],
      "name": "bip_middle_0_R_012",
      "rotation": [
        -0.026223517954349518,
        0.009531615301966667,
        0.10833799839019775,
        0.9937224984169006
      ],
      "scale": [
        0.9999999403953552,
        0.9999999403953552,
        1.0
      ],
      "translation": [
        0.09175072610378265,
        -0.017361517995595932,
        0.021057764068245888
      ]
    },
    {
      "children": [
        31
      ],
      "name": "bip_middle_1_R_013",
      "rotation": [
        -4.138663371122675e-06,
        -5.109179255669005e-06,
        -0.012643350288271904,
        0.9999200701713562
      ],
      "scale": [
        0.9999998807907104,
        0.9999999403953552,
        0.9999998807907104
      ],
      "translation": [
        0.02758331596851349,
        1.1979136615991592e-07,
        2.1047890186309814e-07
      ]
    },
    {
      "children": [
        32
      ],
      "name": "bip_middle_2_R_014",
      "rotation": [
        -4.020381311420351e-06,
        2.565680290445016e-07,
        -0.04154482111334801,
        0.9991366267204285
      ],
      "scale": [
        1.0,
        1.0,
        1.0000001192092896
      ],
      "translation": [
        0.01984151266515255,
        6.671762093901634e-07,
        -3.166496753692627e-08
      ]
    },
    {
      "name": "bip_middle_2_R_end_069",
      "rotation": [
        -1.3877787807814457e-17,
        -1.3877787807814457e-17,
        6.158268339717665e-17,
        1.0
      ],
      "translation": [
        0.0,
        0.019049987196922302,
        -6.938893903907228e-18
      ]
    },
    {
      "children": [
        34
      ],
      "name": "bip_ring_0_R_015",
      "rotation": [
        0.008889094926416874,
        0.013748133555054665,
        0.10228914022445679,
        0.9946199655532837
      ],
      "scale": [
        1.0,
        1.0000001192092896,
        1.0
      ],
      "translation": [
        0.09099230915307999,
        -0.014620603993535042,
        -0.00043538620229810476
      ]
    },
    {
      "children": [
        35
      ],
      "name": "bip_ring_1_R_016",
      "rotation": [
        6.02609247835062e-07,
        1.5032584315122222e-06,
        -0.056855686008930206,
        0.9983825087547302
      ],
      "scale": [
        0.9999998807907104,
        0.9999999403953552,
        0.9999998807907104
      ],
      "translation": [
        0.024067075923085213,
        -1.7104321159422398e-07,
        -1.457519829273224e-07
      ]
    },
    {
      "children": [
        36
      ],
      "name": "bip_ring_2_R_017",
      "rotation": [
        2.4935002329584677e-07,
        6.253200353967259e-06,
        -0.02898634783923626,
        0.999579906463623
      ],
      "scale": [
        0.9999999403953552,
        0.9999998211860657,
        1.0
      ],
      "translation": [
        0.017593052238225937,
        2.786837285384536e-07,
        -3.213062882423401e-08
      ]
    },
    {
      "name": "bip_ring_2_R_end_070",
      "rotation": [
        3.729608476288954e-34,
        -6.938893903907228e-18,
        5.374932270096888e-17,
        1.0
      ],
      "translation": [
        0.0,
        0.019050009548664093,
        -3.469446951953614e-18
      ]
    },
    {
      "children": [
        38
      ],
      "name": "bip_pinky_0_R_018",
      "rotation": [
        0.056715477257966995,
        0.14648683369159698,
        0.09717953950166702,
        0.9827924966812134
      ],
      "scale": [
        1.0,
        0.9999999403953552,
        1.0
      ],
      "translation": [
        0.08599921315908432,
        -0.010781687684357166,
        -0.0187690407037735
      ]
    },
    {
      "children": [
        39
      ],
      "name": "bip_pinky_1_R_019",
      "rotation": [
        -1.4621802790770744e-07,
        -2.4307582862093113e-06,
        -0.002272597048431635,
        0.9999974370002747
      ],
      "scale": [
        1.0,
        1.0,
        0.9999999403953552
      ],
      "translation": [
        0.019646694883704185,
        -1.1245720088481903e-07,
        -1.955777406692505e-07
      ]
    },
    {
      "children": [
        40
      ],
      "name": "bip_pinky_2_R_020",
      "rotation": [
        -4.230790636938764e-06,
        5.273807801131625e-06,
        -0.04076757654547691,
        0.9991686344146729
      ],
      "scale": [
        0.9999999403953552,
        1.0,
        0.9999999403953552
      ],
      "translation": [
        0.015969878062605858,
        -3.2177194952964783e-07,
        -5.587935447692871e-08
      ]
    },
    {
      "name": "bip_pinky_2_R_end_071",
      "rotation": [
        0.0,
        0.0,
        2.7755575615628914e-17,
        1.0
      ],
      "translation": [
        1.1102230246251565e-16,
        0.01904996857047081,
        0.0
      ]
    },
    {
      "children": [
        42
      ],
      "name": "bip_thumb_0_R_021",
      "rotation": [
        -0.6617164015769958,
        -0.4600103497505188,
        -0.18547797203063965,
        0.5622453093528748
      ],
      "scale": [
        1.0,
        1.0,
        1.0000001192092896
      ],
      "translation": [
        0.031562440097332,
        0.01837236061692238,
        0.030847875401377678
      ]
    },
    {
      "children": [
        43
      ],
      "name": "bip_thumb_1_R_022",
      "rotation": [
        3.736709857093956e-07,
        2.552710157033289e-06,
        0.16087554395198822,
        0.9869747161865234
      ],
      "scale": [
        0.9999999403953552,
        0.9999998807907104,
        1.0
      ],
      "translation": [
        0.027541058138012886,
        -7.580965757369995e-07,
        -6.016343832015991e-07
      ]
    },
    {
      "children": [
        44
      ],
      "name": "bip_thumb_2_R_023",
      "rotation": [
        -2.91624758119724e-07,
        -3.1592685445502866e-06,
        0.08486572653055191,
        0.9963924884796143
      ],
      "scale": [
        0.9999999403953552,
        0.9999998807907104,
        0.9999998807907104
      ],
      "translation": [
        0.02140793576836586,
        -4.023313522338867e-07,
        5.029141902923584e-07
      ]
    },
    {
      "name": "bip_thumb_2_R_end_072",
      "rotation": [
        -2.7755575615628914e-17,
        4.163336342344337e-17,
        -2.7755575615628914e-17,
        1.0
      ],
      "translation": [
        0.0,
        0.01904999278485775,
        1.1102230246251565e-16
      ]
    },
    {
      "children": [
        46
      ],
      "name": "bip_wrist_R_024",
      "rotation": [
        2.0252771264495095e-06,
        1.3671815395355225e-06,
        -1.5674448832214694e-06,
        1.0
      ],
      "scale": [
        1.0,
        1.0000001192092896,
        1.0000001192092896
      ],
      "translation": [
        0.13476429879665375,
        8.502101991325617e-07,
        -1.2367963790893555e-06
      ]
    },
    {
      "name": "bip_wrist_R_end_073",
      "rotation": [
        -9.107298248878237e-18,
        2.7755575615628914e-17,
        3.979021973021801e-17,
        1.0
      ],
      "translation": [
        1.1102230246251565e-16,
        0.01905001513659954,
        0.0
      ]
    },
    {
      "children": [
        48
      ],
      "name": "bip_bicep_R_025",
      "rotation": [
        9.498327244727989e-07,
        6.103889063524548e-06,
        -1.784647167824005e-07,
        1.0
      ],
      "scale": [
        0.9999999403953552,
        0.9999999403953552,
        0.9999999403953552
      ],
      "translation": [
        0.12209902703762054,
        2.151413355022669e-06,
        -1.4780089259147644e-06
      ]
    },
    {
      "name": "bip_bicep_R_end_074",
      "rotation": [
        3.0357660829594124e-18,
        -3.5579863010689e-34,
        -1.1720225484568303e-16,
        1.0
      ],
      "translation": [
        -1.1102230246251565e-16,
        0.01904999278485775,
        -1.3877787807814457e-17
      ]
    },
    {
      "children": [
        50
      ],
      "name": "bip_collar_L_00",
      "rotation": [
        0.3718605935573578,
        -0.5698238015174866,
        0.5785932540893555,
        -0.4497224986553192
      ],
      "scale": [
        1.0,
        0.9999999403953552,
        1.0
      ],
      "translation": [
        0.12348468601703644,
        -0.02252434566617012,
        -0.025377944111824036
      ]
    },
    {
      "children": [
        51,
        75
      ],
      "name": "bip_upperarm_L_026",
      "rotation": [
        0.7054160833358765,
        0.1347600221633911,
        -0.13146404922008514,
        0.6833338141441345
      ],
      "translation": [
        0.12771537899971008,
        2.3516216174357396e-07,
        5.316687747836113e-07
      ]
    },
    {
      "children": [
        52,
        73
      ],
      "name": "bip_lowerarm_L_027",
      "rotation": [
        -4.556894418783486e-05,
        -0.1784537434577942,
        -0.0003979893517680466,
        0.9839482307434082
      ],
      "scale": [
        1.0000001192092896,
        1.0,
        1.0
      ],
      "translation": [
        0.20349976420402527,
        -3.945198841392994e-06,
        -7.469207048416138e-07
      ]
    },
    {
      "children": [
        53,
        57,
        61,
        65,
        69
      ],
      "name": "bip_hand_L_028",
      "rotation": [
        -0.002044933382421732,
        0.10808755457401276,
        -0.05883880704641342,
        0.9923965334892273
      ],
      "scale": [
        1.0000001192092896,
        1.0,
        1.0000001192092896
      ],
      "translation": [
        0.20732994377613068,
        -2.7445421437732875e-06,
        5.770474672317505e-06
      ]
    },
    {
      "children": [
        54
      ],
      "name": "bip_index_0_L_029",
      "rotation": [
        0.055080994963645935,
        -0.034245334565639496,
        -0.10418790578842163,
        0.9924405217170715
      ],
      "scale": [
        1.0000001192092896,
        1.0000001192092896,
        1.0
      ],
      "translation": [
        0.08964776247739792,
        0.006166263949126005,
        0.04137618839740753
      ]
    },
    {
      "children": [
        55
      ],
      "name": "bip_index_1_L_030",
      "rotation": [
        7.632837878190912e-06,
        -4.242275736032752e-06,
        0.006908298470079899,
        0.9999761581420898
      ],
      "scale": [
        0.9999998807907104,
        0.9999998211860657,
        0.9999998807907104
      ],
      "translation": [
        0.026851428672671318,
        -4.0279701352119446e-07,
        3.0547380447387695e-07
      ]
    },
    {
      "children": [
        56
      ],
      "name": "bip_index_2_L_031",
      "rotation": [
        -1.9896759795301477e-07,
        2.953687499029911e-06,
        -0.07733287662267685,
        0.9970053434371948
      ],
      "scale": [
        0.9999999403953552,
        0.9999999403953552,
        0.9999998807907104
      ],
      "translation": [
        0.018257223069667816,
        -1.210719347000122e-08,
        7.078051567077637e-08
      ]
    },
    {
      "name": "bip_index_2_L_end_075",
      "rotation": [
        -1.3877787807814457e-17,
        -2.0816681711721685e-17,
        5.204170427930421e-18,
        1.0
      ],
      "translation": [
        0.0,
        0.019050002098083496,
        -1.3877787807814457e-17
      ]
    },
    {
      "children": [
        58
      ],
      "name": "bip_middle_0_L_032",
      "rotation": [
        0.026225049048662186,
        0.009530322626233101,
        -0.1083390936255455,
        0.9937223196029663
      ],
      "translation": [
        0.0917503833770752,
        0.0173609871417284,
        0.0210578553378582
      ]
    },
    {
      "children": [
        59
      ],
      "name": "bip_middle_1_L_033",
      "rotation": [
        5.993424565531313e-06,
        5.497572033164033e-07,
        0.012643007561564445,
        0.9999200701713562
      ],
      "scale": [
        0.9999998807907104,
        0.9999999403953552,
        0.9999998807907104
      ],
      "translation": [
        0.02758336439728737,
        -1.8381979316473007e-07,
        5.774199962615967e-08
      ]
    },
    {
      "children": [
        60
      ],
      "name": "bip_middle_2_L_034",
      "rotation": [
        5.366841833165381e-06,
        5.205933121033013e-06,
        0.04155338183045387,
        0.9991362690925598
      ],
      "translation": [
        0.01984136365354061,
        2.2223684936761856e-07,
        4.377216100692749e-08
      ]
    },
    {
      "name": "bip_middle_2_L_end_076",
      "rotation": [
        6.938893903907228e-18,
        6.938893903907228e-18,
        6.461844948013606e-17,
        1.0
      ],
      "translation": [
        5.551115123125783e-17,
        0.0190499946475029,
        6.938893903907228e-18
      ]
    },
    {
      "children": [
        62
      ],
      "name": "bip_ring_0_L_035",
      "rotation": [
        -0.008886096999049187,
        0.013756707310676575,
        -0.10228484869003296,
        0.9946203231811523
      ],
      "scale": [
        0.9999999403953552,
        1.0000001192092896,
        0.9999999403953552
      ],
      "translation": [
        0.090992271900177,
        0.014620163477957249,
        -0.00043543451465666294
      ]
    },
    {
      "children": [
        63
      ],
      "name": "bip_ring_1_L_036",
      "rotation": [
        -7.613069215040014e-07,
        -3.421158908167854e-06,
        0.05685219541192055,
        0.9983826279640198
      ],
      "scale": [
        1.0,
        1.0,
        0.9999999403953552
      ],
      "translation": [
        0.024066811427474022,
        -2.2105086827650666e-07,
        2.3748725652694702e-07
      ]
    },
    {
      "children": [
        64
      ],
      "name": "bip_ring_2_L_037",
      "rotation": [
        4.2369708808109863e-07,
        3.637878762674518e-06,
        0.028996048495173454,
        0.9995795488357544
      ],
      "scale": [
        1.0,
        0.9999999403953552,
        0.9999999403953552
      ],
      "translation": [
        0.0175931416451931,
        1.5934347175061703e-08,
        4.1443854570388794e-08
      ]
    },
    {
      "name": "bip_ring_2_L_end_077",
      "rotation": [
        -2.2768245622195593e-18,
        -6.938893903907228e-18,
        4.948705291038524e-17,
        1.0
      ],
      "translation": [
        -8.326672684688674e-17,
        0.01904998905956745,
        1.734723475976807e-18
      ]
    },
    {
      "children": [
        66
      ],
      "name": "bip_pinky_0_L_038",
      "rotation": [
        -0.05671118572354317,
        0.146483913064003,
        -0.09718627482652664,
        0.9827924966812134
      ],
      "scale": [
        0.9999999403953552,
        1.0000001192092896,
        1.0000001192092896
      ],
      "translation": [
        0.0859983041882515,
        0.010781862773001194,
        -0.018769074231386185
      ]
    },
    {
      "children": [
        67
      ],
      "name": "bip_pinky_1_L_039",
      "rotation": [
        -2.3776731268299045e-06,
        8.005671588762198e-06,
        0.0022798627614974976,
        0.9999974966049194
      ],
      "translation": [
        0.019648011773824692,
        2.377200871706009e-07,
        -1.825392246246338e-07
      ]
    },
    {
      "children": [
        68
      ],
      "name": "bip_pinky_2_L_040",
      "rotation": [
        4.3109503167215735e-06,
        -6.966497039684327e-06,
        0.04076750949025154,
        0.9991686344146729
      ],
      "scale": [
        1.0,
        1.0,
        0.9999999403953552
      ],
      "translation": [
        0.015969404950737953,
        -2.7241185307502747e-07,
        8.568167686462402e-08
      ]
    },
    {
      "name": "bip_pinky_2_L_end_078",
      "rotation": [
        -3.469446951953614e-17,
        -2.7755575615628914e-17,
        -3.469446951953614e-17,
        1.0
      ],
      "translation": [
        5.551115123125783e-17,
        0.01905001699924469,
        1.3877787807814457e-17
      ]
    },
    {
      "children": [
        70
      ],
      "name": "bip_thumb_0_L_041",
      "rotation": [
        0.6617159247398376,
        -0.4600076973438263,
        0.18547937273979187,
        0.562247633934021
      ],
      "scale": [
        1.0,
        1.0000001192092896,
        1.0
      ],
      "translation": [
        0.031561221927404404,
        -0.018372345715761185,
        0.030847856774926186
      ]
    },
    {
      "children": [
        71
      ],
      "name": "bip_thumb_1_L_042",
      "rotation": [
        -1.9664905721583636e-06,
        -6.539122750837123e-06,
        -0.16087490320205688,
        0.986974835395813
      ],
      "scale": [
        1.0,
        0.9999998807907104,
        0.9999999403953552
      ],
      "translation": [
        0.027541643008589745,
        2.942979335784912e-07,
        -1.7136335372924805e-07
      ]
    },
    {
      "children": [
        72
      ],
      "name": "bip_thumb_2_L_043",
      "rotation": [
        6.782142918382306e-06,
        1.3265183952171355e-05,
        -0.08486286550760269,
        0.9963926672935486
      ],
      "scale": [
        0.9999999403953552,
        0.9999999403953552,
        0.9999999403953552
      ],
      "translation": [
        0.02140783704817295,
        -1.1548399925231934e-07,
        -2.3655593395233154e-07
      ]
    },
    {
      "name": "bip_thumb_2_L_end_079",
      "rotation": [
        -5.551115123125783e-17,
        -1.3877787807814457e-17,
        2.7755575615628914e-17,
        1.0
      ],
      "translation": [
        0.0,
        0.019050003960728645,
        0.0
      ]
    },
    {
      "children": [
        74
      ],
      "name": "bip_wrist_L_044",
      "rotation": [
        1.4659015050710877e-06,
        -3.5949049106420716e-06,
        -1.9606086425483227e-06,
        1.0
      ],
      "scale": [
        1.0,
        1.0000001192092896,
        1.0000001192092896
      ],
      "translation": [
        0.1347646266222,
        -1.922817318700254e-06,
        3.6694109439849854e-06
      ]
    },
    {
      "name": "bip_wrist_L_end_080",
      "rotation": [
        -1.1275702593849246e-17,
        -1.7115197747972506e-35,
        1.5178830414797062e-18,
        1.0
      ],
      "translation": [
        -5.551115123125783e-17,
        0.019050000235438347,
        1.3877787807814457e-17
      ]
    },
    {
      "children": [
        76
      ],
      "name": "bip_bicep_L_045",
      "rotation": [
        -4.459870979189873e-07,
        5.424022674560547e-06,
        -3.145927848891006e-06,
        1.0
      ],
      "scale": [
        1.0,
        0.9999999403953552,
        1.0000001192092896
      ],
      "translation": [
        0.12209973484277725,
        -2.0809820853173733e-06,
        -4.954636096954346e-07
      ]
    },
    {
      "name": "bip_bicep_L_end_081",
      "rotation": [
        -4.336808689942018e-19,
        1.7197482352530066e-35,
        -3.9654694458657325e-17,
        1.0
      ],
      "translation": [
        -5.551115123125783e-17,
        0.019049987196922302,
        0.0
      ]
    },
    {
      "children": [
        78
      ],
      "name": "bip_neck_046",
      "rotation": [
        -4.888780935630166e-08,
        0.004137441050261259,
        -2.0225687791253222e-10,
        0.9999915361404419
      ],
      "translation": [
        0.13005004823207855,
        5.5879194604813165e-09,
        -0.0018064752221107483
      ]
    },
    {
      "children": [
        79,
        81,
        83,
        85,
        87,
        89,
        91,
        93,
        95
      ],
      "name": "bip_head_047",
      "rotation": [
        -2.4410244492401034e-08,
        -0.05257072672247887,
        1.2850406294617756e-09,
        0.9986172318458557
      ],
      "translation": [
        0.07832702249288559,
        -1.8626824527245844e-09,
        4.842674528049429e-08
      ]
    },
    {
      "children": [
        80
      ],
      "name": "bip_jaw_048",
      "rotation": [
        -3.3399292615713273e-15,
        -0.7071065902709961,
        -3.3399275675054328e-15,
        0.7071069478988647
      ],
      "translation": [
        0.024266604334115982,
        -5.4016709327697754e-08,
        0.026630036532878876
      ]
    },
    {
      "name": "bip_jaw_end_082",
      "rotation": [
        -7.674038885990003e-27,
        -0.0,
        4.235164736271502e-22,
        1.0
      ],
      "translation": [
        -3.469446951953614e-18,
        0.019050002098083496,
        -2.220446049250313e-16
      ]
    },
    {
      "children": [
        82
      ],
      "name": "bip_mouthcorner_L_049",
      "rotation": [
        0.29882973432540894,
        -0.6408599019050598,
        -0.2988301217556,
        0.6408587694168091
      ],
      "translation": [
        0.016688698902726173,
        -0.02371598593890667,
        0.07284190505743027
      ]
    },
    {
      "name": "bip_mouthcorner_L_end_083",
      "rotation": [
        -1.5881867761018131e-22,
        -1.0587911840678754e-22,
        5.551115123125783e-17,
        1.0
      ],
      "translation": [
        0.0,
        0.019049882888793945,
        -2.220446049250313e-16
      ]
    },
    {
      "children": [
        84
      ],
      "name": "bip_eye_L_050",
      "rotation": [
        3.361843274466217e-14,
        -0.7071037292480469,
        3.3618137977196524e-14,
        0.7071098685264587
      ],
      "translation": [
        0.06258844584226608,
        -0.02420194074511528,
        0.07330242544412613
      ]
    },
    {
      "name": "bip_eye_L_end_084",
      "rotation": [
        2.455692443516801e-25,
        -0.0,
        -4.235164736271502e-22,
        1.0
      ],
      "translation": [
        0.0,
        0.019049882888793945,
        -2.220446049250313e-16
      ]
    },
    {
      "children": [
        86
      ],
      "name": "bip_upper_eyelid_L_051",
      "rotation": [
        2.2309565422796128e-14,
        -0.7071030139923096,
        2.2309326559505002e-14,
        0.707110583782196
      ],
      "translation": [
        0.06426595896482468,
        -0.02420194074511528,
        0.07330242544412613
      ]
    },
    {
      "name": "bip_upper_eyelid_L_end_085",
      "rotation": [
        -4.52364397489937e-26,
        -1.6940658945086007e-21,
        4.235164736271502e-22,
        1.0
      ],
      "translation": [
        0.0,
        0.019049882888793945,
        0.0
      ]
    },
    {
      "children": [
        88
      ],
      "name": "bip_eyebrow_L_052",
      "rotation": [
        4.3929047682453315e-13,
        -0.7071055769920349,
        4.39288986046546e-13,
        0.7071079611778259
      ],
      "translation": [
        0.07243167608976364,
        -0.02411077916622162,
        0.09228220582008362
      ]
    },
    {
      "name": "bip_eyebrow_L_end_086",
      "rotation": [
        -5.3809861030072976e-43,
        -4.235164736271502e-22,
        -1.2705494208814505e-21,
        1.0
      ],
      "translation": [
        -6.938893903907228e-18,
        0.019050121307373047,
        2.220446049250313e-16
      ]
    },
    {
      "children": [
        90
      ],
      "name": "bip_mouthcorner_R_053",
      "rotation": [
        -0.29883548617362976,
        -0.6408565640449524,
        0.2988350987434387,
        0.6408571004867554
      ],
      "translation": [
        0.014504904858767986,
        0.024426233023405075,
        0.07759479433298111
      ]
    },
    {
      "name": "bip_mouthcorner_R_end_087",
      "rotation": [
        -1.0587911840678754e-22,
        -5.293955920339377e-23,
        -5.551115123125783e-17,
        1.0
      ],
      "translation": [
        0.0,
        0.019050121307373047,
        -2.220446049250313e-16
      ]
    },
    {
      "children": [
        92
      ],
      "name": "bip_eye_R_054",
      "rotation": [
        -2.4790276168668024e-12,
        -0.7071004509925842,
        -2.4789831645777305e-12,
        0.7071131467819214
      ],
      "scale": [
        0.9999999403953552,
        0.9999998211860657,
        0.9999999403953552
      ],
      "translation": [
        0.062238093465566635,
        0.01866568811237812,
        0.07330244034528732
      ]
    },
    {
      "name": "bip_eye_R_end_088",
      "rotation": [
        3.2311742677852644e-25,
        -1.6940658945086007e-21,
        4.235164736271502e-22,
        1.0
      ],
      "translation": [
        0.0,
        0.019049882888793945,
        0.0
      ]
    },
    {
      "children": [
        94
      ],
      "name": "bip_upper_eyelid_R_055",
      "rotation": [
        -2.4790276168668024e-12,
        -0.7071004509925842,
        -2.4789831645777305e-12,
        0.7071131467819214
      ],
      "scale": [
        0.9999999403953552,
        0.9999998211860657,
        0.9999999403953552
      ],
      "translation": [
        0.06398855894804001,
        0.01866568811237812,
        0.07330244034528732
      ]
    },
    {
      "name": "bip_upper_eyelid_R_end_089",
      "rotation": [
        3.2311742677852644e-25,
        -1.6940658945086007e-21,
        4.235164736271502e-22,
        1.0
      ],
      "translation": [
        0.0,
        0.019049882888793945,
        -2.220446049250313e-16
      ]
    },
    {
      "children": [
        96
      ],
      "name": "bip_eyebrow_R_056",
      "rotation": [
        3.0511083568517117e-13,
        -0.7071059346199036,
        3.0511010384870474e-13,
        0.707107663154602
      ],
      "translation": [
        0.0724322721362114,
        0.021755313500761986,
        0.09228220582008362
      ]
    },
    {
      "name": "bip_eyebrow_R_end_090",
      "rotation": [
        -5.00832011506716e-26,
        2.117582368135751e-22,
        -4.235164736271502e-22,
        1.0
      ],
      "translation": [
        0.0,
        0.019050121307373047,
        -4.440892098500626e-16
      ]
    },
    {
      "children": [
        98
      ],
      "name": "bip_disc_057",
      "rotation": [
        1.475152329932436e-13,
        0.004136963281780481,
        1.5654280172486268e-14,
        0.9999915361404419
      ],
      "translation": [
        0.07005058228969574,
        -0.002068586414679885,
        -0.10211025923490524
      ]
    },
    {
      "name": "bip_disc_end_091",
      "rotation": [
        0.0,
        0.0,
        5.293955920339377e-23,
        1.0
      ],
      "translation": [
        2.220446049250313e-16,
        0.019050121307373047,
        -1.3877787807814457e-17
      ]
    },
    {
      "children": [
        100,
        104
      ],
      "name": "bip_hip_R_058",
      "rotation": [
        -0.05940582603216171,
        -0.0074844639748334885,
        0.9943979978561401,
        0.08710678666830063
      ],
      "scale": [
        1.0000038146972656,
        1.0000001192092896,
        1.0000001192092896
      ],
      "translation": [
        -0.04596495255827904,
        0.09238999336957932,
        -0.025423910468816757
      ]
    },
    {
      "children": [
        101
      ],
      "name": "bip_knee_R_059",
      "rotation": [
        1.3065021448710468e-05,
        0.04557529091835022,
        0.0005776836769655347,
        0.9989607334136963
      ],
      "scale": [
        1.0,
        0.9999999403953552,
        1.0
      ],
      "translation": [
        0.3046628534793854,
        -3.0274968594312668e-05,
        0.002112281508743763
      ]
    },
    {
      "children": [
        102
      ],
      "name": "bip_foot_R_060",
      "rotation": [
        0.040181778371334076,
        -0.5175642371177673,
        0.07701824605464935,
        0.8512231707572937
      ],
      "scale": [
        1.0000001192092896,
        1.0000001192092896,
        1.0000001192092896
      ],
      "translation": [
        0.35365304350852966,
        9.85770020633936e-06,
        4.032626748085022e-07
      ]
    },
    {
      "children": [
        103
      ],
      "name": "bip_toe_R_061",
      "rotation": [
        -1.8195265511167236e-05,
        -0.3042263388633728,
        -8.764230187807698e-06,
        0.9525997638702393
      ],
      "scale": [
        1.0,
        1.0,
        0.9999998807907104
      ],
      "translation": [
        0.1097060889005661,
        -2.135103841283126e-06,
        2.9346424526011106e-06
      ]
    },
    {
      "name": "bip_toe_R_end_092",
      "rotation": [
        3.7980333867496115e-19,
        -3.3881317890172014e-21,
        -1.6940658945086007e-21,
        1.0
      ],
      "translation": [
        0.0,
        0.019050002098083496,
        0.0
      ]
    },
    {
      "children": [
        105
      ],
      "name": "bip_hip_R_adj_062",
      "rotation": [
        6.643256347160786e-05,
        -0.0034572931472212076,
        -4.442353383637965e-05,
        0.9999940395355225
      ],
      "scale": [
        1.0,
        1.0000001192092896,
        1.0
      ],
      "translation": [
        0.1523321121931076,
        -1.4944351278245449e-05,
        0.0010562476236373186
      ]
    },
    {
      "name": "bip_hip_R_adj_end_093",
      "rotation": [
        -8.673617379884035e-19,
        6.938893903907228e-18,
        3.7947076036992655e-19,
        1.0
      ],
      "translation": [
        0.0,
        0.019050002098083496,
        6.938893903907228e-18
      ]
    },
    {
      "children": [
        107,
        111
      ],
      "name": "bip_hip_L_063",
      "rotation": [
        -0.05940048024058342,
        0.007483571767807007,
        0.994397759437561,
        -0.08711310476064682
      ],
      "scale": [
        1.0000042915344238,
        1.0,
        1.0000001192092896
      ],
      "translation": [
        -0.04596525430679321,
        -0.0923900380730629,
        -0.025423875078558922
      ]
    },
    {
      "children": [
        108
      ],
      "name": "bip_knee_L_064",
      "rotation": [
        -1.1575107237149496e-05,
        0.045583341270685196,
        -0.000590927607845515,
        0.9989603757858276
      ],
      "scale": [
        0.9999999403953552,
        0.9999999403953552,
        1.0
      ],
      "translation": [
        0.3046683073043823,
        2.5601242668926716e-05,
        0.0021092721726745367
      ]
    },
    {
      "children": [
        109
      ],
      "name": "bip_foot_L_065",
      "rotation": [
        -0.04016704112291336,
        -0.5175702571868896,
        -0.0769818127155304,
        0.8512235283851624
      ],
      "scale": [
        0.9999998807907104,
        0.9999998807907104,
        1.0
      ],
      "translation": [
        0.3536597490310669,
        -3.973487764596939e-06,
        3.0477531254291534e-06
      ]
    },
    {
      "children": [
        110
      ],
      "name": "bip_toe_L_066",
      "rotation": [
        -1.4608868696086574e-05,
        -0.3042151927947998,
        -1.3604823834612034e-05,
        0.9526033401489258
      ],
      "translation": [
        0.10970690846443176,
        -2.017613724092371e-06,
        1.0570111044216901e-06
      ]
    },
    {
      "name": "bip_toe_L_end_094",
      "rotation": [
        -8.78979696486864e-19,
        -6.776263578034403e-21,
        -5.95619810313567e-39,
        1.0
      ],
      "translation": [
        2.168404344971009e-19,
        0.019050002098083496,
        -3.469446951953614e-18
      ]
    },
    {
      "children": [
        112
      ],
      "name": "bip_hip_L_adj_067",
      "rotation": [
        -6.58570061204955e-05,
        -0.003457560669630766,
        4.482157964957878e-05,
        0.9999940395355225
      ],
      "scale": [
        0.9999999403953552,
        1.0,
        0.9999999403953552
      ],
      "translation": [
        0.15233436226844788,
        1.2791861081495881e-05,
        0.0010546296834945679
      ]
    },
    {
      "name": "bip_hip_L_adj_end_095",
      "rotation": [
        0.0,
        0.0,
        4.7704895589362195e-18,
        1.0
      ],
      "translation": [
        1.1102230246251565e-16,
        0.019050002098083496,
        0.0
      ]
    }
  ],
  "samplers": [
    {
      "magFilter": 9729,
      "minFilter": 9987,
      "wrapS": 10497,
      "wrapT": 10497
    }
  ],
  "scene": 0,
  "scenes": [
    {
      "name": "Sketchfab_Scene",
      "nodes": [
        0
      ]
    }
  ],
  "skins": [
    {
      "inverseBindMatrices": 38,
      "joints": [
        5,
        17,
        18,
        19,
        20,
        21,
        22,
        23,
        24,
        25,
        26,
        27,
        28,
        29,
        30,
        31,
        32,
        33,
        34,
        35,
        36,
        37,
        38,
        39,
        40,
        41,
        42,
        43,
        44,
        45,
        46,
        47,
        48,
        49,
        50,
        51,
        52,
        53,
        54,
        55,
        56,
        57,
        58,
        59,
        60,
        61,
        62,
        63,
        64,
        65,
        66,
        67,
        68,
        69,
        70,
        71,
        72,
        73,
        74,
        75,
        76,
        77,
        78,
        79,
        80,
        81,
        82,
        83,
        84,
        85,
        86,
        87,
        88,
        89,
        90,
        91,
        92,
        93,
        94,
        95,
        96,
        97,
        98,
        99,
        100,
        101,
        102,
        103,
        104,
        105,
        106,
        107,
        108,
        109,
        110,
        111,
        112
      ],
      "skeleton": 5
    }
  ],
  "textures": [
    {
      "sampler": 0,
      "source": 0
    },
    {
      "sampler": 0,
      "source": 1
    },
    {
      "sampler": 0,
      "source": 2
    },
    {
      "sampler": 0,
      "source": 3
    },
    {
      "sampler": 0,
      "source": 4
    },
    {
      "sampler": 0,
      "source": 5
    },
    {
      "sampler": 0,
      "source": 6
    },
    {
      "sampler": 0,
      "source": 7
    },
    {
      "sampler": 0,
      "source": 8
    },
    {
      "sampler": 0,
      "source": 9
    },
    {
      "sampler": 0,
      "source": 10
    },
    {
      "sampler": 0,
      "source": 11
    },
    {
      "sampler": 0,
      "source": 12
    },
    {
      "sampler": 0,
      "source": 13
    },
    {
      "sampler": 0,
      "source": 14
    },
    {
      "sampler": 0,
      "source": 15
    },
    {
      "sampler": 0,
      "source": 16
    }
  ]
}
